<?xml version="1.0"?>
<svg width="326" height="416" xmlns="http://www.w3.org/2000/svg" xmlns:svg="http://www.w3.org/2000/svg" preserveAspectRatio="xMidYMid meet">

 <g class="layer">
  <title>Layer 1</title>
  <g fill="#333333" id="svg_1" transform="translate(0, 416) scale(0.1, -0.1)">
   <path d="m0,2080l0,-2080l1630,0l1630,0l0,2080l0,2080l-1630,0l-1630,0l0,-2080zm3020,1929c-42,-12 -57,-8 -25,6c17,7 34,10 40,7c5,-3 -1,-9 -15,-13zm-63,-15c-3,-3 -12,-4 -19,-1c-8,3 -5,6 6,6c11,1 17,-2 13,-5zm101,-17c-8,-6 -25,-27 -38,-45c-12,-18 -24,-31 -27,-28c-5,5 44,76 62,88c16,12 20,-1 3,-15zm-141,7c-3,-3 -12,-4 -19,-1c-8,3 -5,6 6,6c11,1 17,-2 13,-5zm-102,-25c-38,-10 -74,-18 -80,-18c-19,2 100,37 125,37c14,0 -6,-8 -45,-19zm-160,-39c-27,-12 -43,-12 -25,0c8,5 22,9 30,9c10,0 8,-3 -5,-9zm-68,-16c-3,-3 -12,-4 -19,-1c-8,3 -5,6 6,6c11,1 17,-2 13,-5zm-80,-20c-3,-3 -12,-4 -19,-1c-8,3 -5,6 6,6c11,1 17,-2 13,-5zm-50,-10c-3,-3 -12,-4 -19,-1c-8,3 -5,6 6,6c11,1 17,-2 13,-5zm-40,-10c-3,-3 -12,-4 -19,-1c-8,3 -5,6 6,6c11,1 17,-2 13,-5zm-40,-10c-3,-3 -12,-4 -19,-1c-8,3 -5,6 6,6c11,1 17,-2 13,-5zm-80,-20c-3,-3 -12,-4 -19,-1c-8,3 -5,6 6,6c11,1 17,-2 13,-5zm-38,-8c-2,-2 -17,-6 -34,-10c-22,-5 -26,-4 -15,4c14,9 59,15 49,6zm-139,-36c-14,-4 -34,-8 -45,-8c-16,0 -15,2 5,8c14,4 34,8 45,8c16,0 15,-2 -5,-8zm529,-112c-45,-62 -189,-257 -318,-433c-129,-176 -292,-398 -363,-492c-70,-95 -123,-173 -118,-173c6,0 87,18 181,41c94,22 172,39 174,37c2,-2 -41,-64 -94,-138c-53,-74 -187,-261 -296,-415c-109,-154 -222,-314 -252,-355c-29,-41 -49,-76 -44,-78c5,-2 61,10 125,26c64,17 116,27 115,23c0,-3 -29,-31 -63,-61c-62,-55 -461,-417 -546,-496c-294,-273 -456,-421 -458,-419c-3,3 169,330 293,560c98,182 176,335 170,335c-3,0 -77,-18 -165,-40c-88,-22 -166,-40 -175,-40c-11,0 53,137 218,465c128,256 228,465 222,465c-5,0 -95,-21 -198,-46c-103,-25 -190,-44 -193,-41c-7,6 543,1046 565,1068c10,11 171,54 441,120c234,56 522,126 640,154c118,29 217,51 219,49c2,-2 -34,-54 -80,-116zm-602,96c-3,-3 -12,-4 -19,-1c-8,3 -5,6 6,6c11,1 17,-2 13,-5zm-40,-10c-3,-3 -12,-4 -19,-1c-8,3 -5,6 6,6c11,1 17,-2 13,-5zm-52,-14c-11,-5 -29,-9 -40,-9l-20,0l20,9c11,5 29,9 40,9l20,0l-20,-9zm-148,-36c-3,-3 -12,-4 -19,-1c-8,3 -5,6 6,6c11,1 17,-2 13,-5zm-158,-38c-2,-2 -22,-6 -44,-9c-28,-5 -34,-4 -20,3c19,8 73,14 64,6zm-172,-42c-3,-3 -12,-4 -19,-1c-8,3 -5,6 6,6c11,1 17,-2 13,-5zm-40,-10c-3,-3 -12,-4 -19,-1c-8,3 -5,6 6,6c11,1 17,-2 13,-5zm-69,-16c-21,-6 -38,-15 -38,-22c0,-7 -7,-21 -15,-32c-13,-17 -14,-15 -1,15c14,36 35,50 71,49c11,0 3,-5 -17,-10zm-80,-103c-6,-14 -15,-25 -20,-25c-5,0 -1,11 8,25c9,14 18,25 20,25c2,0 -2,-11 -8,-25zm-49,-95c-17,-34 -33,-59 -36,-56c-5,4 56,116 63,116c3,0 -10,-27 -27,-60zm-94,-175c-20,-37 -39,-65 -41,-62c-3,2 12,34 33,70c21,36 39,64 42,62c2,-2 -13,-34 -34,-70zm-62,-120c-9,-19 -18,-33 -21,-31c-4,5 26,66 33,66c3,0 -3,-16 -12,-35zm-45,-82c-27,-47 -27,-47 -33,-42c-5,5 42,79 50,79c2,0 -5,-17 -17,-37zm-48,-93c-21,-41 -35,-54 -23,-22c8,21 34,62 39,62c3,0 -5,-18 -16,-40zm1515,-61c-4,-5 -13,-9 -22,-9c-13,0 -13,3 -3,15c13,15 35,11 25,-6zm-1557,-14c-6,-14 -13,-23 -15,-21c-5,5 15,46 22,46c3,0 -1,-11 -7,-25zm1499,-1c-3,-3 -12,-4 -19,-1c-8,3 -5,6 6,6c11,1 17,-2 13,-5zm73,-24c-6,-12 -14,-20 -17,-17c-2,3 1,14 8,26c17,26 24,19 9,-9zm-130,10c-34,-11 -60,-11 -35,0c11,5 29,8 40,8c16,0 15,-2 -5,-8zm-61,-14c-2,-2 -17,-6 -34,-10c-22,-5 -26,-4 -15,4c14,9 59,15 49,6zm-1419,-46c-11,-22 -22,-40 -25,-40c-6,0 15,50 28,68c19,24 17,11 -3,-28zm1590,16c0,-2 -7,-9 -15,-16c-13,-11 -14,-10 -9,4c5,14 24,23 24,12zm-1671,-166c-28,-56 -53,-99 -55,-97c-6,6 93,197 102,197c3,0 -18,-45 -47,-100zm-84,-161c-9,-17 -18,-29 -21,-27c-6,6 20,58 29,58c4,0 0,-14 -8,-31zm-47,-86c-28,-49 -32,-53 -23,-23c6,22 33,60 41,60c2,0 -6,-17 -18,-37zm-50,-98c-6,-14 -13,-23 -16,-21c-7,7 9,46 18,46c5,0 4,-11 -2,-25zm-28,-55c-6,-11 -15,-20 -20,-20c-6,0 -2,9 7,20c10,11 19,20 21,20c1,0 -2,-9 -8,-20zm85,-30c-3,-5 -21,-9 -38,-9l-32,1l30,8c43,11 47,11 40,0zm258,-25c-9,-19 -18,-33 -20,-32c-5,6 21,67 29,67c4,0 0,-16 -9,-35zm-336,9c-3,-3 -12,-4 -19,-1c-8,3 -5,6 6,6c11,1 17,-2 13,-5zm276,-129c-3,-9 -8,-14 -10,-11c-3,3 -2,9 2,15c9,16 15,13 8,-4zm-60,-120c-15,-30 -29,-53 -31,-51c-4,5 46,106 53,106c3,0 -7,-25 -22,-55zm1367,36c-18,-11 -97,-26 -89,-18c5,6 72,24 94,26c6,0 3,-4 -5,-8zm-115,-31c-28,-12 -37,-12 -30,0c3,6 16,10 28,9c21,0 21,-1 2,-9zm118,-19c-9,-12 -22,-21 -27,-21c-5,0 1,11 14,25c28,30 39,26 13,-4zm-198,0c-30,-12 -101,-24 -93,-15c4,4 25,10 45,14c52,10 72,10 48,1zm-1217,-76c-6,-14 -13,-23 -15,-21c-5,5 15,46 22,46c3,0 -1,-11 -7,-25zm-55,-110c-3,-9 -8,-14 -10,-11c-3,3 -2,9 2,15c9,16 15,13 8,-4zm-60,-120c-15,-30 -29,-53 -31,-51c-4,5 46,106 53,106c3,0 -7,-25 -22,-55zm-50,-100c-9,-19 -18,-33 -21,-31c-4,5 26,66 33,66c3,0 -3,-16 -12,-35zm-52,-102c-12,-20 -14,-14 -5,12c4,9 9,14 11,11c3,-2 0,-13 -6,-23zm70,-56c-6,-8 -28,-14 -48,-14l-38,-1l40,13c52,18 60,18 46,2zm207,-12c-6,-14 -13,-23 -15,-21c-5,5 15,46 22,46c3,0 -1,-11 -7,-25zm-35,-70c-9,-19 -18,-33 -21,-31c-4,5 26,66 33,66c3,0 -3,-16 -12,-35zm-41,-74c-9,-16 -18,-28 -21,-26c-4,5 27,55 34,55c2,0 -4,-13 -13,-29zm-42,-81c-11,-22 -23,-40 -25,-40c-3,0 4,18 15,40c11,22 23,40 25,40c3,0 -4,-18 -15,-40zm-40,-72c0,-4 -4,-8 -9,-8c-6,0 -12,4 -15,8c-3,5 1,9 9,9c8,0 15,-4 15,-9zm-86,-165c-88,-168 -114,-213 -114,-198c0,6 7,21 16,33c8,12 12,22 8,22c-3,0 -2,6 4,13c9,11 39,65 102,182c14,28 32,60 39,73c6,12 14,22 17,22c3,0 -30,-66 -72,-147zm-139,-263c-29,-56 -34,-62 -27,-24c4,20 39,73 50,74c1,0 -9,-22 -23,-50zm-81,-150c-38,-73 -47,-85 -36,-47c8,24 61,117 68,117c3,0 -12,-31 -32,-70zm-84,-161c-12,-23 -24,-39 -26,-36c-5,5 35,77 42,77c3,0 -5,-18 -16,-41zm-47,-84c-9,-19 -18,-33 -21,-31c-4,5 26,66 33,66c3,0 -3,-16 -12,-35zm97,10c-7,-9 -40,-38 -74,-66c-60,-51 -60,-50 9,14c69,65 90,82 65,52zm-130,-75c-12,-22 -21,-26 -17,-7c2,10 17,26 25,27c1,0 -2,-9 -8,-20z" id="svg_2"/>
  </g>
  <path d="m143.5,69.5l128.5,-32.5l-86,119l34,-6l-68,97l23,-4l-105,97l43,-88l-32,8l43,-93l-38,9l57.5,-106.5z" fill="#ff0000" id="svg_4" stroke="#000000" stroke-width="5"/>
 </g>
</svg>